<?xml version="1.0" encoding="UTF-8" standalone="no"?>
<svg width="218px" height="80px" viewBox="0 0 218 80" version="1.1" xmlns="http://www.w3.org/2000/svg" xmlns:xlink="http://www.w3.org/1999/xlink">
    <!-- Generator: Sketch 46.1 (44463) - http://www.bohemiancoding.com/sketch -->
    <title>Papaers</title>
    <desc>Created with Sketch.</desc>
    <defs></defs>
    <g id="Page-1" stroke="none" stroke-width="1" fill="none" fill-rule="evenodd">
        <g id="Cooming-Soon" transform="translate(-273.000000, -219.000000)">
            <g id="Content" transform="translate(66.000000, 219.000000)">
                <g id="Papaers" transform="translate(204.000000, 0.000000)">
                    <g id="pear" transform="translate(0.482595, 0.424844)" fill-rule="nonzero">
                        <path d="M33.3352924,10.5089897 C32.9935815,10.1672788 32.4398869,10.1672788 32.0981759,10.5089897 L28.7189761,14.3207695 L28.7189761,12.3769085 C28.7189761,11.8933796 28.3272175,11.5020175 27.844085,11.5020175 C27.3609526,11.5020175 26.969194,11.8932805 26.969194,12.3769085 L27.0243951,13.0582729 L24.5301148,10.1720641 C24.1884038,9.83035315 23.6347092,9.83035315 23.2929983,10.1720641 C22.9512873,10.513775 22.9512873,11.0674697 23.2929983,11.4091806 L27.0243951,15.5324068 L26.969194,16.4218755 C26.969128,16.4278218 26.969128,16.8207302 26.969194,17.6006008 C26.969194,18.0841297 27.3609526,18.4754918 27.844085,18.4754918 C28.3272175,18.4754918 28.7189761,18.0842288 28.7189761,17.6006008 L28.7189761,16.794606 C31.7965864,13.4287413 33.3353915,11.7458089 33.3353915,11.7458089 C33.3353915,11.7458089 33.6771025,10.8507006 33.3352924,10.5089897 Z" id="Shape" fill="#776754"></path>
                        <g id="leaf" transform="translate(29.647236, 0.000000)">
                            <path d="M13.7966789,0.27553386 C14.5998379,4.00717951 13.5333873,8.23363815 10.6389752,11.3106649 C7.74468285,14.3876917 3.76921952,15.521601 0.259183882,14.6677337 C-0.54397508,10.9360881 0.52247545,6.70962943 3.41688753,3.63260265 C6.31129961,0.555575869 10.2867629,-0.578333437 13.7966789,0.27553386 Z" id="Shape" fill="#96D46E"></path>
                            <path d="M0.259183882,14.6676432 C-0.54397508,10.9359975 0.52247545,6.70953892 3.41688753,3.63263937 C6.31129961,0.555739822 10.2865236,-0.578423952 13.7964395,0.275570579 L0.259183882,14.6676432 Z" id="Shape" fill="#B1E58F"></path>
                        </g>
                        <g id="leaf" transform="translate(14.736016, 2.203507)">
                            <path d="M0.262876054,0.203738458 C-0.368510104,2.96280391 0.469863497,6.08765097 2.7449655,8.3626176 C5.02006751,10.6375842 8.14491457,11.4760932 10.9038446,10.844707 C11.5352308,8.0856416 10.6968572,4.96079454 8.42175519,2.68582791 C6.14665319,0.410861275 3.02194151,-0.4276477 0.262876054,0.203738458 Z" id="Shape" fill="#96D46E"></path>
                            <path d="M10.9038446,10.844707 C11.5352308,8.0856416 10.6968572,4.96079454 8.42175519,2.68582791 C6.14665319,0.410861275 3.02194151,-0.4276477 0.262876054,0.203738458 L10.9038446,10.844707 Z" id="Shape" fill="#B1E58F"></path>
                        </g>
                        <path d="M51.4586023,51.4507262 C51.5566466,51.7637585 51.6463883,52.0826853 51.7270398,52.4078457 L51.4586023,51.4507262 Z M50.7390476,64.268016 C47.5989882,72.5597821 39.9946985,78.6667468 33.5002047,78.6667468 C31.7275161,78.6667468 30.4761149,78.1655288 29.4716029,77.7629282 C28.8072339,77.4959695 28.2828323,77.285586 27.7729637,77.285586 C27.2630951,77.285586 26.7386935,77.4959695 26.0743245,77.7629282 C25.0698125,78.1655288 23.8184113,78.6667468 22.0457227,78.6667468 C13.6239811,78.6667468 3.33646997,68.3979211 3.33664298,56.4122898 C3.33664298,49.9346925 6.89551523,45.6720044 10.0350046,41.9120913 C12.5867696,38.8559941 14.7912981,36.2159926 14.7912981,32.9213108 C14.7912981,22.9537003 21.479798,17.5754259 27.7731367,17.5754259 C34.0664755,17.5754259 40.7549753,22.9537003 40.7549753,32.9213108 C40.7549753,35.4593658 42.0629855,37.6087444 43.8303082,39.8591163 C43.7610376,40.1121958 43.7067464,40.3792616 43.6674347,40.6603138 C41.1854594,41.0033873 39.4260246,41.9379555 38.3891303,43.4640183 C37.352236,44.9900811 37.4920356,46.9774121 38.8085292,49.4260113 C37.0904048,51.1474137 36.5080736,52.973191 37.0615358,54.9033431 C37.6149981,56.8334952 39.0926357,58.1300228 41.4944488,58.792926 C40.8474142,60.8215674 41.6358874,62.5000204 43.8598684,63.8282852 C46.0838494,65.1565499 48.2172754,65.097732 50.2601464,63.6518315 C50.4145033,63.8769695 50.5741371,64.0823643 50.7390476,64.268016 Z" id="Combined-Shape" fill="#F8BC7F"></path>
                        <path d="M17.4838955,58.9822042 C17.4838955,52.5046069 20.2642104,48.2419188 22.7170121,44.4820057 C24.710638,41.4259085 26.43298,38.78608 26.43298,35.4912252 C26.43298,27.5681063 27.8075662,19.9868776 31.631321,18.2595184 C30.368501,17.8140105 29.0638118,17.5752529 27.7729637,17.5752529 C21.4796249,17.5752529 14.7911251,22.9535273 14.7911251,32.9211378 C14.7911251,36.2158196 12.5865966,38.8558211 10.0348316,41.9119183 C6.89534222,45.6718314 3.33646997,49.9345195 3.33646997,56.4121168 C3.33646997,68.3979211 13.6239811,78.6667468 22.0457227,78.6667468 C23.8184113,78.6667468 25.0698125,78.1655288 26.0743245,77.7629282 C26.1900701,77.7163877 26.2824589,77.6871486 26.3902458,77.6449335 C20.8675058,74.7660013 17.4838955,68.7271473 17.4838955,58.9822042 Z" id="Shape" fill="#E59168"></path>
                    </g>
                    <path d="M127.115548,43.2726127 C127.801776,42.1212713 128.477427,41.031277 129.142506,40.0026218 C130.536485,37.8466006 131.772462,36.0995062 132.850472,34.7612861 C133.928483,33.4230661 134.671927,32.7539661 135.080828,32.7539661 C136.084493,32.7539661 136.586318,33.2557911 136.586318,34.2594561 C136.586318,34.4081472 136.40975,34.9471444 136.056608,35.8764639 C135.703467,36.8057834 135.210935,38.0324667 134.578998,39.5565507 C135.582663,38.4785401 136.660657,37.5120623 137.813013,36.6570884 C138.779506,35.9136328 139.885379,35.2352398 141.130667,34.6218889 C142.375956,34.008538 143.649104,33.7018672 144.950151,33.7018672 C145.842298,33.7018672 146.54857,33.9341936 147.068989,34.3988533 C147.589408,34.8635131 147.979717,35.4489756 148.239926,36.1552584 C148.500135,36.8615412 148.648824,37.6421578 148.685997,38.4971318 C148.72317,39.3521057 148.704584,40.1698946 148.630238,40.9505229 C148.370029,43.7384814 147.710222,46.4334675 146.650798,49.035562 C145.591373,51.6376566 144.318225,53.9423343 142.831314,55.9496644 C141.344402,57.9569945 139.718118,59.5646931 137.952411,60.7728084 C136.186704,61.9809238 134.486075,62.5849724 132.850472,62.5849724 C131.363561,62.5849724 130.248394,62.1203196 129.504939,61.1910001 C128.761483,60.2616806 128.259658,59.1651001 127.999449,57.9012256 C127.952983,57.752535 127.94369,57.7153628 127.94369,57.67819 L127.94369,57.4551545 L127.887931,57.0090833 C127.776413,56.0797639 127.776413,55.2248028 127.887931,54.4441744 C127.887931,54.1839649 127.906517,53.9330524 127.94369,53.6914294 C127.980863,53.4498063 128.018035,53.1988938 128.055208,52.9386844 C127.609134,53.7750722 127.339636,54.8066013 127.246704,55.9775439 C127.153772,57.1484864 127.125893,58.1614295 127.163065,59.0164034 C126.308092,61.6184979 125.611112,64.0532785 125.072107,66.320818 C124.533102,68.5883576 124.263603,70.502727 124.263603,72.0639837 C124.263603,72.8074393 124.328655,73.4021949 124.458759,73.8482682 C124.588864,74.2943416 124.746846,74.6474777 124.93271,74.9076871 C125.155747,75.3165877 125.118574,75.6325516 124.821192,75.8555883 C124.52381,76.0786249 124.133501,76.2923652 123.650255,76.4968155 C123.167009,76.7012658 122.553668,76.8034894 121.810212,76.8034894 C121.141102,76.8034894 120.481295,76.6548005 119.830771,76.3574183 C119.180248,76.060036 118.604078,75.6139694 118.102246,75.0192049 C117.600413,74.4244404 117.200812,73.680996 116.90343,72.7888493 C116.606047,71.8967026 116.457359,70.8558804 116.457359,69.6663514 C116.457359,67.9192308 116.85696,65.7911211 117.656175,63.2819585 C117.888274,62.5532744 118.139182,61.8151885 118.408901,61.0676988 C118.124908,61.2839499 117.836827,61.4830336 117.544657,61.6649507 C116.559578,62.2783015 115.528049,62.5849724 114.450038,62.5849724 C113.483546,62.5849724 112.693636,62.352646 112.080286,61.8879862 C111.466935,61.4233265 110.992989,60.8192779 110.658434,60.0758223 C110.323879,59.3323667 110.100846,58.5145778 109.989327,57.6224311 C109.877809,56.7302844 109.822051,55.8567372 109.822051,55.0017633 C109.822051,54.369826 109.896395,53.6821399 110.045086,52.9386844 C110.193777,52.1952288 110.416811,51.4331982 110.714193,50.6525699 C110.268119,51.470371 109.840639,52.4461418 109.431738,53.5799116 C109.022838,54.7136814 108.706874,55.98683 108.483837,57.3993956 C107.517345,58.6260973 106.411471,59.7226778 105.166183,60.6891701 C103.920895,61.6556624 102.610574,62.1389012 101.235181,62.1389012 C100.380208,62.1389012 99.6646423,61.9530401 99.0884642,61.5813123 C98.5122861,61.2095846 98.0383403,60.7449318 97.6666125,60.1873401 C97.2948847,59.6297484 97.0253861,59.0164067 96.8581086,58.3472967 C96.6908311,57.6781867 96.6071936,57.064845 96.6071936,56.5072533 C96.6071936,53.6077765 97.1926561,50.829153 98.3635986,48.1712992 C99.5345412,45.5134455 100.984258,43.1530094 102.712792,41.0899202 C104.441326,39.0268309 106.299937,37.3819601 108.288681,36.1552584 C110.277425,34.9285567 112.108157,34.315215 113.780932,34.315215 C115.416534,34.315215 116.65251,34.6032997 117.488898,35.1794778 C118.325286,35.7556559 118.864283,36.3968767 119.105906,37.1031595 C119.347529,37.8094423 119.375408,38.4506631 119.189544,39.0268412 C119.00368,39.6030193 118.724889,39.891104 118.353161,39.891104 C118.130124,39.891104 117.962849,39.7981735 117.851331,39.6123096 C117.739812,39.4264457 117.600417,39.2127054 117.433139,38.9710823 C117.265862,38.7294593 117.005656,38.515719 116.652515,38.3298551 C116.299373,38.1439912 115.751083,38.0510606 115.007627,38.0510606 C114.338517,38.0510606 113.567194,38.3670245 112.693633,38.9989618 C111.820073,39.630899 110.946526,40.4115157 110.072966,41.3408352 C109.199405,42.2701547 108.381616,43.2923908 107.619574,44.4075741 C106.857532,45.5227575 106.281363,46.5449936 105.891049,47.4743131 C105.500735,48.4036326 105.352046,49.1842492 105.444978,49.8161865 C105.53791,50.4481237 105.993269,50.7640876 106.81107,50.7640876 C107.331489,50.7640876 107.926245,50.5224682 108.595355,50.0392221 C109.264465,49.5559759 109.933565,48.9798065 110.602675,48.3106965 C111.271785,47.6415864 111.89442,46.9446073 112.470598,46.2197381 C113.046776,45.4948689 113.502136,44.8908203 113.836691,44.4075741 L114.338521,43.7384675 C114.338521,43.7012947 114.347814,43.6827086 114.3664,43.6827086 C114.384987,43.6827086 114.39428,43.6641225 114.39428,43.6269497 L114.450038,43.5711908 L114.450038,43.6269497 C115.00763,42.8834941 115.55592,42.2887385 116.094926,41.8426652 C116.633931,41.3965918 117.107877,41.1735585 117.516777,41.1735585 C118.185887,41.1735585 118.520437,41.5266946 118.520437,42.2329774 C118.520437,42.4188413 118.4368,42.7812705 118.269522,43.3202758 C118.102245,43.8592811 117.925677,44.5005019 117.739813,45.2439575 C117.553949,45.9874131 117.377381,46.7866158 117.210104,47.6415898 C117.042826,48.4965637 116.959189,49.3143526 116.959189,50.0949809 C116.959189,51.1729915 117.172929,51.8792638 117.600416,52.2138188 C118.027903,52.5483738 118.501849,52.7156488 119.022267,52.7156488 C120.100278,52.7156488 121.26191,51.9443252 122.507198,50.4016548 C123.752486,48.8589845 125.174324,46.6565304 126.772753,43.7942263 C126.883643,43.5882875 126.997908,43.4144166 127.115548,43.2726127 Z M106.978347,24.7246859 C106.978347,26.732016 106.550867,28.7950743 105.695893,30.9139227 C104.840919,33.0327711 103.68858,35.0865364 102.238841,37.0752801 C100.789103,39.0640238 99.097767,40.941221 97.1647825,42.706928 C95.2317979,44.472635 93.2059119,46.0152822 91.0870634,47.3349159 C88.968215,48.6545495 86.8029331,49.7046648 84.5911527,50.4852932 C82.3793723,51.2659215 80.2698488,51.6562299 78.2625187,51.6562299 C77.0729897,51.6562299 76.0414606,51.5725924 75.1679003,51.4053149 C74.2943399,51.2380374 73.5973608,51.0242971 73.0769419,50.7640876 C73.5973608,51.0614699 74.3408052,51.423899 75.3072975,51.851386 C76.2737897,52.278873 77.481887,52.5855438 78.9316254,52.7714077 C78.7085887,54.3698372 78.5784859,56.0240011 78.5413131,57.7339489 C78.5041403,59.4438968 78.615657,61.2281634 78.8758665,63.0868024 C79.0989031,64.7595775 79.4520392,66.0513122 79.9352854,66.9620453 C80.4185315,67.8727784 80.6973232,68.5325853 80.7716687,68.9414859 C80.8088415,69.1273498 80.548636,69.3132109 79.9910443,69.4990748 C79.4334526,69.6849387 78.9130415,69.8150414 78.4297953,69.889387 C78.1695859,69.9265598 77.6398817,69.963732 76.840667,70.0009048 C76.0414522,70.0380776 75.1771981,69.8429234 74.2478786,69.4154364 C73.3185591,68.9879495 72.4450119,68.2166259 71.6272107,67.1014425 C70.8094096,65.9862591 70.2518263,64.2763369 69.954444,61.9716246 C69.6942346,60.03864 69.768579,58.0499262 70.1774796,56.0054233 C70.5863802,53.9609205 71.1997218,51.9350344 72.017523,49.9277043 C71.497104,49.1099031 71.8688263,48.2735281 73.1327008,47.4185542 C74.0620202,45.5227425 75.0842563,43.7384758 76.1994397,42.0657007 C77.3146231,40.3929257 78.4112037,38.9246229 79.4892143,37.6607484 C80.5672249,36.3968739 81.5615818,35.3839309 82.4723149,34.6218889 C83.383048,33.8598469 84.1171994,33.4416594 84.6747911,33.3673139 C85.19521,33.2929683 85.5111738,33.6646905 85.6226922,34.4824917 C85.6226922,34.59401 85.4368311,34.9750253 85.0651033,35.6255489 C84.6933755,36.2760726 84.2194297,37.1589128 83.6432516,38.2740962 C83.0670735,39.3892796 82.4444388,40.7274796 81.7753288,42.2887363 C81.1062187,43.849993 80.5114632,45.5785014 79.9910443,47.4743131 C81.2920915,47.325622 82.6209985,46.7959178 83.9778049,45.8851847 C85.3346114,44.9744516 86.6356391,43.8221128 87.8809272,42.4281335 C89.1262154,41.0341543 90.3064334,39.472921 91.4216168,37.7443868 C92.5368002,36.0158525 93.521864,34.259465 94.376838,32.4751716 C95.2318119,30.6908782 95.928791,28.9437838 96.4677963,27.2338359 C97.0068016,25.5238881 97.3320586,24.00912 97.4435769,22.6894864 C97.5550953,21.3698527 97.4156994,20.3104444 97.0253852,19.5112296 C96.6350711,18.7120149 95.956678,18.3124135 94.9901858,18.3124135 C93.1315468,18.3124135 91.1707121,18.8235315 89.1076228,19.845783 C87.0445336,20.8680344 85.0186475,22.2062344 83.0299038,23.8604231 C81.0411601,25.5146118 79.1546698,27.401102 77.3703764,29.5199504 C75.586083,31.6387989 74.0155566,33.7762016 72.6587502,35.9322228 C71.3019437,38.088244 70.2239493,40.1698884 69.4247346,42.1772185 C68.6255198,44.1845486 68.2259184,45.931643 68.2259184,47.4185542 C68.1515729,47.5300726 68.0586423,47.6230031 67.947124,47.6973487 C67.8356056,47.7716942 67.7055029,47.8274526 67.5568117,47.8646253 C67.4081206,47.9017981 67.1850873,47.9203842 66.8877051,47.9203842 C66.5903228,47.9203842 66.0977909,47.8460398 65.4100945,47.6973487 C64.722398,47.5486575 64.0068328,47.1955214 63.2633772,46.6379298 C62.5199216,46.0803381 61.8694077,45.2625492 61.311816,44.1845386 C60.7542243,43.106528 60.4754327,41.6382252 60.4754327,39.7795862 C60.4754327,38.2555023 60.9493785,36.536287 61.8972844,34.6218889 C62.8451902,32.7074908 64.146218,30.7745352 65.8004067,28.8229643 C67.4545954,26.8713934 69.406137,24.966317 71.6550902,23.1076781 C73.9040433,21.2490391 76.3295308,19.6041683 78.9316254,18.1730163 C81.5337199,16.7418643 84.2472921,15.5895254 87.0724233,14.7159651 C89.8975546,13.8424048 92.7412295,13.4056311 95.6035335,13.4056311 C99.3208115,13.4056311 102.1459,14.3349367 104.078885,16.1935757 C106.011869,18.0522146 106.978347,20.8958896 106.978347,24.7246859 Z M134.634757,52.8829255 C134.039992,52.8829255 133.603219,52.7063574 133.324423,52.353216 C133.045627,52.0000746 132.896938,51.5261288 132.878352,50.9313643 C132.859765,50.3365998 132.952696,49.6489137 133.157146,48.8682854 C133.361596,48.087657 133.649681,47.2884542 134.021409,46.4706531 C134.207273,46.1360981 134.365255,45.8015481 134.49536,45.4669931 C134.625464,45.132438 134.783446,44.8164742 134.96931,44.5190919 C135.415383,43.7384636 135.898622,42.976433 136.419041,42.2329774 C136.93946,41.4895218 137.478457,40.8390079 138.036049,40.2814163 C138.593641,39.7238246 139.151224,39.2777579 139.708816,38.9432029 C140.266407,38.6086479 140.805405,38.4413729 141.325824,38.4413729 C142.106452,38.4413729 142.608277,38.794509 142.831314,39.5007918 C143.05435,40.2070746 143.045057,41.0992079 142.803434,42.1772185 C142.561811,43.2552291 142.152917,44.4168611 141.576739,45.6621492 C141.00056,46.9074373 140.331461,48.0690692 139.569419,49.1470798 C138.807377,50.2250904 137.998881,51.1172237 137.143907,51.8235065 C136.288933,52.5297894 135.452558,52.8829255 134.634757,52.8829255 Z M172.885355,43.7942263 C173.145565,43.3109802 173.424357,43.0043094 173.721739,42.8742047 C174.019121,42.7440999 174.270034,42.7348069 174.474484,42.8463252 C174.678934,42.9578436 174.81833,43.1715838 174.892676,43.4875525 C174.967021,43.8035211 174.911263,44.1845363 174.725399,44.6306097 C174.279325,45.597102 173.768207,46.7122686 173.192029,47.9761431 C172.615851,49.2400176 171.965337,50.5410454 171.240468,51.8792654 C170.515599,53.2174855 169.679224,54.5278063 168.731318,55.8102672 C167.783412,57.0927281 166.705418,58.2357739 165.497303,59.239439 C164.289187,60.243104 162.932401,61.0515998 161.426904,61.6649507 C159.921406,62.2783015 158.239363,62.5849724 156.380724,62.5849724 C155.265541,62.5849724 154.215425,62.361939 153.230347,61.9158657 C152.245268,61.4697923 151.381014,60.8657437 150.637558,60.1037018 C149.894103,59.3416598 149.30864,58.4402334 148.881153,57.3993956 C148.453666,56.3585578 148.239926,55.2433911 148.239926,54.0538622 C148.239926,51.8606682 148.723165,49.5652835 149.689657,47.1676392 C150.656149,44.7699949 151.920005,42.5768339 153.481262,40.5880902 C155.042518,38.5993465 156.798906,36.9544756 158.750477,35.6534284 C160.702048,34.3523811 162.662882,33.7018672 164.63304,33.7018672 C165.599532,33.7018672 166.361563,33.8691422 166.919154,34.2036972 C167.476746,34.5382522 167.894933,34.9285606 168.173729,35.3746339 C168.452525,35.8207073 168.6198,36.28536 168.675559,36.7686062 C168.731318,37.2518523 168.759198,37.6421606 168.759198,37.9395429 C168.759198,39.0547262 168.498992,40.2999957 167.978573,41.6753885 C167.458154,43.0507814 166.779761,44.3425161 165.943374,45.5506314 C165.106986,46.7587467 164.177681,47.7716898 163.155429,48.5894909 C162.133178,49.4072921 161.101649,49.8161865 160.060811,49.8161865 C159.391701,49.8161865 158.796945,49.7046698 158.276526,49.4816332 C157.756107,49.2585965 157.291455,48.9798048 156.882554,48.6452498 C156.845381,48.8682865 156.817502,49.0913198 156.798916,49.3143565 C156.780329,49.5373932 156.771036,49.7418404 156.771036,49.9277043 C156.771036,51.2659243 157.282154,52.2695743 158.304406,52.9386844 C159.326657,53.6077944 160.627685,53.7750694 162.207528,53.4405144 C163.787371,53.1059593 165.525172,52.1766538 167.420984,50.6525699 C169.316796,49.1284859 171.138235,46.8423943 172.885355,43.7942263 Z M164.521522,37.9395429 C164.298485,37.9395429 163.954642,38.1161109 163.489982,38.4692523 C163.025323,38.8223937 162.514205,39.3056326 161.956613,39.9189835 C161.399021,40.5323343 160.822852,41.2293135 160.228087,42.0099419 C159.633323,42.7905702 159.094326,43.6083591 158.61108,44.463333 C158.759771,44.5005058 158.889873,44.528385 159.001392,44.5469714 C159.11291,44.5655578 159.243013,44.5748508 159.391704,44.5748508 C160.13516,44.5748508 160.89719,44.2310078 161.677819,43.5433113 C162.458447,42.8556149 163.13684,42.0935844 163.713018,41.2571968 C164.289196,40.4208093 164.679504,39.6587788 164.883955,38.9710823 C165.088405,38.2833859 164.967595,37.9395429 164.521522,37.9395429 Z M206.396449,37.9953018 C206.396449,37.5120556 206.21988,37.1682126 205.866739,36.9637623 C205.513598,36.759312 205.151168,36.5083995 204.779441,36.2110173 C204.333367,37.2146823 203.887301,38.1811601 203.441227,39.1104796 C202.995154,40.039799 202.576966,40.8947601 202.186652,41.6753885 C201.796338,42.4560169 201.452495,43.1065308 201.155113,43.6269497 C200.857731,44.1473686 200.671869,44.4819186 200.597524,44.6306097 C200.41166,44.9651647 200.188627,45.1696119 199.928417,45.2439575 C199.668208,45.3183031 199.435881,45.2997169 199.231431,45.1881986 C199.026981,45.0766803 198.887585,44.8908192 198.813239,44.6306097 C198.738894,44.3704002 198.794652,44.0916086 198.980516,43.7942263 C199.129207,43.5340169 199.361534,43.1065363 199.677502,42.5117719 C199.993471,41.9170074 200.337314,41.2200282 200.709042,40.4208135 C201.08077,39.6215987 201.471078,38.7852237 201.879978,37.9116634 C202.288879,37.0381031 202.642015,36.1924351 202.939397,35.3746339 C202.047251,35.0029061 201.266634,34.5196672 200.597524,33.9249028 C200.002759,33.4044839 199.463762,32.7725561 198.980516,32.0291005 C198.49727,31.2856449 198.255651,30.3749255 198.255651,29.2969149 C198.255651,28.0330404 198.701717,26.9736321 199.593864,26.1186581 C200.486011,25.2636842 201.471074,24.73398 202.549085,24.5295298 C203.627096,24.3250795 204.61216,24.5016475 205.504306,25.0592392 C206.396453,25.6168309 206.84252,26.6576531 206.84252,28.1817371 C206.84252,28.8136743 206.786761,29.4641882 206.675243,30.1332982 C206.563725,30.8024083 206.433622,31.3971638 206.284931,31.9175827 C206.13624,32.54952 205.950379,33.1628616 205.727342,33.7576261 C206.247761,33.8691444 206.898275,34.1107639 207.678903,34.4824917 C208.459531,34.8542195 209.221562,35.3281653 209.965017,35.9043434 C210.708473,36.4805215 211.340401,37.1682076 211.86082,37.9674223 C212.381239,38.7666371 212.641444,39.6494773 212.641444,40.6159696 C212.641444,41.1735613 212.455583,41.8612474 212.083855,42.6790485 C211.712128,43.4968497 211.284647,44.3518108 210.801401,45.2439575 C210.318155,46.1361042 209.81633,47.0282375 209.295911,47.9203842 C208.775492,48.8125309 208.375891,49.6117337 208.097095,50.3180165 C207.818299,51.0242993 207.706782,51.6004688 207.762541,52.0465421 C207.818301,52.4926155 208.162144,52.7156488 208.794081,52.7156488 C209.351672,52.7156488 210.011479,52.5204946 210.773521,52.1301804 C211.535563,51.7398663 212.353352,51.1636968 213.226913,50.4016548 C214.100473,49.6396129 215.011192,48.7010143 215.959098,47.5858309 C216.907004,46.4706475 217.827017,45.206792 218.719163,43.7942263 C219.016546,43.3109802 219.323216,43.0043094 219.639185,42.8742047 C219.955154,42.7440999 220.215359,42.7348069 220.419809,42.8463252 C220.62426,42.9578436 220.745069,43.1715838 220.782242,43.4875525 C220.819415,43.8035211 220.726484,44.1845363 220.503448,44.6306097 C219.945856,45.597102 219.295342,46.7122686 218.551887,47.9761431 C217.808431,49.2400176 216.990642,50.5410454 216.098495,51.8792654 C215.206349,53.2174855 214.258457,54.5278063 213.254792,55.8102672 C212.251127,57.0927281 211.210305,58.2357739 210.132294,59.239439 C209.054284,60.243104 207.966996,61.0515998 206.870399,61.6649507 C205.773802,62.2783015 204.686515,62.5849724 203.608504,62.5849724 C202.642012,62.5849724 201.852102,62.352646 201.238751,61.8879862 C200.6254,61.4233265 200.142161,60.8471571 199.78902,60.1594606 C199.435879,59.4717642 199.203552,58.7190267 199.092034,57.9012256 C198.980516,57.0834244 198.961929,56.3213939 199.036275,55.6151111 C199.184966,53.942336 199.649619,52.1766555 200.430247,50.3180165 C201.210876,48.4593775 202.047251,46.693697 202.939397,45.0209219 C203.831544,43.3481469 204.630747,41.870551 205.33703,40.5880902 C206.043312,39.3056293 206.396449,38.4413751 206.396449,37.9953018 Z" id="Papears" fill="#3E4B40"></path>
                    <path d="M198.980516,43.7942263 C199.240726,43.3109802 199.519517,43.0043094 199.816899,42.8742047 C200.114282,42.7440999 200.374487,42.7348069 200.597524,42.8463252 C200.820561,42.9578436 200.959956,43.1715838 201.015716,43.4875525 C201.071475,43.8035211 201.006423,44.1845363 200.820559,44.6306097 C200.374486,45.597102 199.854075,46.7122686 199.259311,47.9761431 C198.664546,49.2400176 198.023325,50.5410454 197.335629,51.8792654 C196.647932,53.2174855 195.904488,54.5278063 195.105273,55.8102672 C194.306058,57.0927281 193.46039,58.2357739 192.568244,59.239439 C191.676097,60.243104 190.737498,61.0515998 189.75242,61.6649507 C188.767341,62.2783015 187.735812,62.5849724 186.657801,62.5849724 C185.691309,62.5849724 184.901399,62.352646 184.288049,61.8879862 C183.674698,61.4233265 183.200752,60.8192779 182.866197,60.0758223 C182.531642,59.3323667 182.308608,58.5145778 182.19709,57.6224311 C182.085572,56.7302844 182.029813,55.8567372 182.029813,55.0017633 C182.029813,54.369826 182.104158,53.6821399 182.252849,52.9386844 C182.40154,52.1952288 182.624573,51.4331982 182.921956,50.6525699 C182.475882,51.470371 182.048402,52.4461418 181.639501,53.5799116 C181.230601,54.7136814 180.914637,55.98683 180.6916,57.3993956 C179.725108,58.6260973 178.619234,59.7226778 177.373946,60.6891701 C176.128658,61.6556624 174.818337,62.1389012 173.442944,62.1389012 C172.58797,62.1389012 171.872405,61.9530401 171.296227,61.5813123 C170.720049,61.2095846 170.246103,60.7449318 169.874375,60.1873401 C169.502648,59.6297484 169.233149,59.0164067 169.065871,58.3472967 C168.898594,57.6781867 168.814956,57.064845 168.814956,56.5072533 C168.814956,53.6077765 169.400419,50.829153 170.571362,48.1712992 C171.742304,45.5134455 173.192021,43.1530094 174.920555,41.0899202 C176.649089,39.0268309 178.5077,37.3819601 180.496444,36.1552584 C182.485188,34.9285567 184.31592,34.315215 185.988695,34.315215 C187.624297,34.315215 188.860273,34.6032997 189.696661,35.1794778 C190.533048,35.7556559 191.072046,36.3968767 191.313669,37.1031595 C191.555292,37.8094423 191.583171,38.4506631 191.397307,39.0268412 C191.211443,39.6030193 190.932651,39.891104 190.560924,39.891104 C190.337887,39.891104 190.170612,39.7981735 190.059094,39.6123096 C189.947575,39.4264457 189.80818,39.2127054 189.640902,38.9710823 C189.473624,38.7294593 189.213419,38.515719 188.860278,38.3298551 C188.507136,38.1439912 187.958846,38.0510606 187.21539,38.0510606 C186.54628,38.0510606 185.774957,38.3670245 184.901396,38.9989618 C184.027836,39.630899 183.154289,40.4115157 182.280728,41.3408352 C181.407168,42.2701547 180.589379,43.2923908 179.827337,44.4075741 C179.065295,45.5227575 178.489126,46.5449936 178.098812,47.4743131 C177.708498,48.4036326 177.559809,49.1842492 177.652741,49.8161865 C177.745673,50.4481237 178.201032,50.7640876 179.018833,50.7640876 C179.539252,50.7640876 180.134008,50.5224682 180.803118,50.0392221 C181.472228,49.5559759 182.141328,48.9798065 182.810438,48.3106965 C183.479548,47.6415864 184.102183,46.9446073 184.678361,46.2197381 C185.254539,45.4948689 185.709899,44.8908203 186.044454,44.4075741 L186.546284,43.7384675 C186.546284,43.7012947 186.555577,43.6827086 186.574163,43.6827086 C186.592749,43.6827086 186.602042,43.6641225 186.602042,43.6269497 L186.657801,43.5711908 L186.657801,43.6269497 C187.215393,42.8834941 187.763683,42.2887385 188.302689,41.8426652 C188.841694,41.3965918 189.31564,41.1735585 189.72454,41.1735585 C190.39365,41.1735585 190.7282,41.5266946 190.7282,42.2329774 C190.7282,42.4188413 190.644563,42.7812705 190.477285,43.3202758 C190.310008,43.8592811 190.13344,44.5005019 189.947576,45.2439575 C189.761712,45.9874131 189.585144,46.7866158 189.417866,47.6415898 C189.250589,48.4965637 189.166951,49.3143526 189.166951,50.0949809 C189.166951,51.1729915 189.380692,51.8792638 189.808179,52.2138188 C190.235666,52.5483738 190.709611,52.7156488 191.23003,52.7156488 C192.308041,52.7156488 193.469673,51.9443252 194.714961,50.4016548 C195.960249,48.8589845 197.382087,46.6565304 198.980516,43.7942263 Z" id="Path" fill="#3E4B40"></path>
                </g>
            </g>
        </g>
    </g>
</svg>